<?xml version="1.0" standalone="no"?>
<!DOCTYPE svg PUBLIC "-//W3C//DTD SVG 20010904//EN"
 "http://www.w3.org/TR/2001/REC-SVG-20010904/DTD/svg10.dtd">
<svg version="1.0" xmlns="http://www.w3.org/2000/svg"
 width="1280.000000pt" height="861.000000pt" viewBox="0 0 1280.000000 861.000000"
 preserveAspectRatio="xMidYMid meet">
<g transform="translate(0.000000,861.000000) scale(0.100000,-0.100000)"
fill="#000000" stroke="none">
<path d="M12710 8589 c-19 -11 -278 -119 -575 -240 -1847 -755 -2864 -1198
-2944 -1283 l-23 -24 84 -71 c45 -38 200 -166 343 -284 143 -117 261 -220 263
-228 7 -39 -664 -801 -1053 -1197 l-170 -172 -666 0 -666 0 -7 -37 c-3 -21 -6
-295 -6 -610 0 -520 -2 -573 -17 -588 -20 -21 -233 -192 -326 -263 -38 -29
-73 -50 -78 -47 -5 4 -9 94 -9 203 0 108 -3 207 -6 220 l-6 22 -978 0 -977 0
-6 -527 c-4 -289 -7 -696 -7 -905 l0 -378 -37 -23 c-111 -70 -344 -198 -351
-193 -5 3 -13 216 -17 473 -4 258 -9 470 -12 473 -8 9 -1941 5 -1950 -3 -4 -5
-9 -442 -11 -972 -3 -723 -6 -966 -15 -973 -31 -26 -733 -311 -1137 -462 -387
-145 -1149 -406 -1312 -451 -28 -7 -38 -15 -38 -30 0 -20 4 -20 193 -16 534
11 1242 118 2029 307 142 34 262 58 268 55 6 -4 10 -69 10 -163 0 -86 3 -167
6 -180 l6 -22 978 0 977 0 6 167 c4 91 7 314 7 494 l0 328 58 21 c146 56 306
110 322 110 15 0 18 -18 23 -173 4 -94 7 -346 7 -559 l0 -388 980 0 c539 0
981 1 982 3 1 1 5 450 8 997 l5 995 190 97 c105 54 200 97 213 98 l22 0 0
-1027 c0 -566 3 -1058 7 -1095 l6 -68 977 0 977 0 6 977 c4 537 7 1310 7 1719
l0 742 58 49 c278 233 888 769 1147 1007 200 184 547 529 682 678 109 121 116
127 138 115 13 -6 170 -133 350 -280 203 -168 332 -267 341 -263 8 3 19 16 24
28 10 22 775 3720 787 3801 5 36 4 37 -23 36 -16 -1 -45 -10 -64 -20z"/>
</g>
</svg>
